<?xml version="1.0" encoding="UTF-8" standalone="no"?>
<!-- Created with Inkscape (http://www.inkscape.org/) -->

<svg
   xmlns:dc="http://purl.org/dc/elements/1.1/"
   xmlns:cc="http://creativecommons.org/ns#"
   xmlns:rdf="http://www.w3.org/1999/02/22-rdf-syntax-ns#"
   xmlns:svg="http://www.w3.org/2000/svg"
   xmlns="http://www.w3.org/2000/svg"
   xmlns:sodipodi="http://sodipodi.sourceforge.net/DTD/sodipodi-0.dtd"
   xmlns:inkscape="http://www.inkscape.org/namespaces/inkscape"
   width="100.0mm"
   height="100.0mm"
   viewBox="0 0 100.0 100.0"
   version="1.1"
   id="svg832"
   inkscape:version="0.92.2 (5c3e80d, 2017-08-06)"
   sodipodi:docname="misl-logo.svg">
  <sodipodi:namedview
     id="base"
     pagecolor="#ffffff"
     bordercolor="#666666"
     borderopacity="1.0"
     inkscape:pageopacity="0.0"
     inkscape:pageshadow="2"
     inkscape:zoom="3.959798"
     inkscape:cx="194.15826"
     inkscape:cy="150.53433"
     inkscape:document-units="mm"
     inkscape:current-layer="g1396"
     showgrid="true"
     inkscape:window-width="1184"
     inkscape:window-height="628"
     inkscape:window-x="3850"
     inkscape:window-y="204"
     inkscape:window-maximized="0"
     borderlayer="true">
    <inkscape:grid
       id="grid1378"
       units="mm"
       type="xygrid"
       empspacing="1"
       spacingy="2.54"
       spacingx="2.54" />
  </sodipodi:namedview>
  <defs
     id="defs826">
    <clipPath
       clipPathUnits="userSpaceOnUse"
       id="clipPath18">
      <path
         d="M 0,0 370,0 370,178 0,178 0,0 Z"
         id="path20" />
    </clipPath>
  </defs>
  <metadata
     id="metadata829">
    <rdf:RDF>
      <cc:Work
         rdf:about="">
        <dc:format>image/svg+xml</dc:format>
        <dc:type
           rdf:resource="http://purl.org/dc/dcmitype/StillImage" />
        <dc:title></dc:title>
      </cc:Work>
    </rdf:RDF>
  </metadata>
  <g
     id="g1384"
     sodipodi:insensitive="true"
     inkscape:groupmode="layer"
     inkscape:label="[fixed] BG">
    <rect
       id="rect1382"
       style="stroke:none;fill-opacity:1;fill:#FFFFFF"
       height="100.0"
       width="100.0"
       y="0"
       x="0" />
  </g>
  <g
     id="g1386"
     inkscape:groupmode="layer"
     inkscape:label="Edge.Cuts" />
  <g
     id="g1388"
     inkscape:groupmode="layer"
     inkscape:label="B.Cu-disabled" />
  <g
     id="g1390"
     inkscape:groupmode="layer"
     inkscape:label="B.Mask-disabled" />
  <g
     id="g1392"
     inkscape:groupmode="layer"
     inkscape:label="B.Silk-disabled" />
  <g
     id="g1394"
     inkscape:groupmode="layer"
     inkscape:label="F.Cu" />
  <g
     id="g1396"
     inkscape:groupmode="layer"
     inkscape:label="F.Mask"
     style="display:inline">
    <g
       style="stroke-width:4.11239672"
       id="g12"
       transform="matrix(0.08042249,0,0,-0.08042249,38.801759,62.237488)" />
    <g
       id="g5203"
       transform="matrix(0.7666666,0,0,0.7666666,12.66567,14.45243)"
       style="stroke-width:1.30434787">
      <path
         d="m 40.53615,54.986677 h 2.236228 l 2.482482,4.485484 2.575128,-4.485484 h 2.163847 v 6.09321 h -1.451224 v -4.476879 l -2.502747,4.476879 h -1.565666 l -2.495509,-4.476879 v 4.476879 H 40.53615 Z m 10.722088,0 h 1.442538 v 6.09321 h -1.442538 z m 4.617376,0 h 2.651932 c 0.756052,0 1.316516,0.140498 1.683002,0.422861 0.366404,0.280996 0.548883,0.714071 0.548883,1.300673 h -1.556979 c -0.0058,-0.192612 -0.0579,-0.327319 -0.154975,-0.401228 -0.09699,-0.07527 -0.292577,-0.112993 -0.583626,-0.112993 h -2.423129 c -0.220117,0 -0.392542,0.04206 -0.517036,0.124574 -0.124575,0.08404 -0.186902,0.233225 -0.186902,0.448999 0,0.154974 0.02759,0.269415 0.08259,0.340348 0.05501,0.07246 0.13326,0.120232 0.233144,0.140498 0.101413,0.02171 0.23033,0.03482 0.3882,0.04053 l 2.669303,0.105755 c 0.379433,0.01448 0.692277,0.04488 0.93853,0.08983 0.244806,0.04488 0.451894,0.12747 0.617002,0.247621 0.165107,0.120232 0.291129,0.299815 0.37509,0.537383 0.08549,0.237488 0.12747,0.556122 0.12747,0.958797 0,0.656087 -0.152079,1.128247 -0.457604,1.416482 -0.305686,0.288234 -0.831408,0.433075 -1.574431,0.433075 h -2.99228 c -0.508351,0 -0.911026,-0.06088 -1.206498,-0.184007 -0.295472,-0.123046 -0.506903,-0.311396 -0.634373,-0.564807 -0.127389,-0.253492 -0.191164,-0.580811 -0.191164,-0.981959 H 55.1876 c 0,0.143394 0.06812,0.265073 0.204273,0.364958 0.136155,0.09852 0.30271,0.147736 0.501113,0.147736 h 2.414363 c 0.330295,0 0.572126,-0.04343 0.722757,-0.128918 0.152079,-0.08686 0.227435,-0.249148 0.227435,-0.486636 0,-0.234673 -0.06957,-0.401228 -0.208616,-0.501113 -0.137603,-0.101412 -0.40549,-0.159317 -0.800927,-0.176688 l -2.313032,-0.09273 c -0.617001,-0.02895 -1.07171,-0.08259 -1.365734,-0.159317 -0.294025,-0.07825 -0.512774,-0.234592 -0.65472,-0.47216 -0.140498,-0.23604 -0.211431,-0.59963 -0.211431,-1.092057 0,-0.433075 0.07391,-0.777766 0.220117,-1.035601 0.147736,-0.257754 0.379513,-0.443128 0.693805,-0.557569 0.315738,-0.114441 0.735785,-0.172345 1.258611,-0.172345 z m 5.787605,0 h 1.451224 v 4.866445 h 3.709246 v 1.226765 h -5.16047 v -6.09321"
         style="fill:#000000;fill-opacity:1;fill-rule:nonzero;stroke:none;stroke-width:0.43138593"
         id="path22"
         inkscape:connector-curvature="0" />
      <path
         d="m 52.933438,51.738493 1.328178,-1.327695 c -0.0982,-0.137764 -0.15602,-0.30641 -0.15602,-0.488406 0,-0.465244 0.377262,-0.842506 0.842506,-0.842506 0.465164,0 0.842425,0.377262 0.842425,0.842506 0,0.465164 -0.377261,0.842426 -0.842425,0.842426 -0.156663,0 -0.303273,-0.04286 -0.428974,-0.117337 l -1.356807,1.356406 c 0.0086,0.01279 0.01721,0.02566 0.02549,0.03884 0.208697,0.329813 0.271989,0.710211 0.207088,1.066241 l 1.856393,0.418117 c 0.06394,-0.156663 0.175482,-0.295633 0.32933,-0.392944 0.393185,-0.248667 0.91368,-0.131572 1.162346,0.261614 0.248666,0.393105 0.131571,0.9136 -0.261614,1.162346 -0.393105,0.248667 -0.9136,0.131491 -1.162266,-0.261614 -0.0838,-0.132376 -0.125942,-0.279227 -0.130204,-0.425194 l -1.896523,-0.427204 c -0.113798,0.25896 -0.302228,0.488406 -0.557248,0.65287 -0.237648,0.159397 -0.52347,0.252365 -0.831086,0.252365 -0.658982,0 -1.2184,-0.426882 -1.416964,-1.019113 l -1.223467,0.406455 c 0.0012,0.01866 0.0019,0.0374 0.0019,0.05638 0,0.465164 -0.377262,0.842426 -0.842506,0.842426 -0.465164,0 -0.842425,-0.377262 -0.842425,-0.842426 0,-0.465244 0.377261,-0.842506 0.842425,-0.842506 0.323299,0 0.604053,0.182237 0.745356,0.449481 l 1.247272,-0.414336 c -0.0037,-0.04303 -0.0057,-0.08645 -0.0057,-0.130446 0,-0.366324 0.131974,-0.701847 0.350884,-0.961772 L 49.768572,51.0812 c -0.01504,0.01094 -0.03056,0.02155 -0.04657,0.03169 -0.393105,0.248667 -0.913599,0.131571 -1.162266,-0.261614 -0.248666,-0.393105 -0.13149,-0.9136 0.261615,-1.162266 0.393105,-0.248747 0.913599,-0.131571 1.162266,0.261534 0.172828,0.273276 0.168967,0.607914 0.01858,0.870171 l 1.015656,0.831569 c 0.0271,-0.01994 0.05493,-0.03909 0.0834,-0.05726 0.0083,-0.0055 0.01665,-0.01094 0.02517,-0.01633 0.582259,-0.368335 1.321985,-0.284052 1.807013,0.1598 z M 49.264242,49.81157 c 0.325872,0 0.58998,0.264188 0.58998,0.589979 0,0.325792 -0.264108,0.58998 -0.58998,0.58998 -0.325791,0 -0.589979,-0.264188 -0.589979,-0.58998 0,-0.325791 0.264188,-0.589979 0.589979,-0.589979 z m -0.842345,3.401308 c 0.325792,0 0.58998,0.264188 0.58998,0.58998 0,0.325791 -0.264188,0.589979 -0.58998,0.589979 -0.325791,0 -0.589979,-0.264188 -0.589979,-0.589979 0,-0.325792 0.264188,-0.58998 0.589979,-0.58998 z m 6.534167,-3.895343 c 0.33697,0 0.610165,0.273195 0.610165,0.610165 0,0.33697 -0.273195,0.610246 -0.610165,0.610246 -0.336971,0 -0.610246,-0.273276 -0.610246,-0.610246 0,-0.33697 0.273275,-0.610165 0.610246,-0.610165 z m 1.07742,3.91561 c 0.337855,0 0.611935,0.273999 0.611935,0.611934 0,0.337936 -0.27408,0.611935 -0.611935,0.611935 -0.337935,0 -0.611935,-0.273999 -0.611935,-0.611935 0,-0.337935 0.274,-0.611934 0.611935,-0.611934 z m -4.124307,-1.587862 c 0.666301,0 1.206659,0.540278 1.206659,1.206579 0,0.6663 -0.540358,1.206659 -1.206659,1.206659 -0.6663,0 -1.206578,-0.540359 -1.206578,-1.206659 0,-0.666301 0.540278,-1.206579 1.206578,-1.206579"
         style="fill:#000000;fill-opacity:1;fill-rule:evenodd;stroke:none;stroke-width:0.43138593"
         id="path24"
         inkscape:connector-curvature="0" />
      <path
         d="m 51.909177,51.859127 c 0.54824,0 0.992816,0.444575 0.992816,0.992735 0,0.54824 -0.444576,0.992815 -0.992816,0.992815 -0.548159,0 -0.992735,-0.444575 -0.992735,-0.992815 0,-0.54816 0.444576,-0.992735 0.992735,-0.992735"
         style="fill:#000000;fill-opacity:1;fill-rule:evenodd;stroke:none;stroke-width:0.43138593"
         id="path26"
         inkscape:connector-curvature="0" />
      <path
         d="m 56.033484,53.401952 c 0.244645,0 0.443047,0.198482 0.443047,0.443127 0,0.244646 -0.198402,0.443048 -0.443047,0.443048 -0.244645,0 -0.443128,-0.198402 -0.443128,-0.443048 0,-0.244645 0.198483,-0.443127 0.443128,-0.443127"
         style="fill:#000000;fill-opacity:1;fill-rule:evenodd;stroke:none;stroke-width:0.43138593"
         id="path28"
         inkscape:connector-curvature="0" />
      <path
         d="m 54.956064,49.464466 c 0.255743,0 0.463233,0.20741 0.463233,0.463234 0,0.255824 -0.20749,0.463234 -0.463233,0.463234 -0.255824,0 -0.463314,-0.20741 -0.463314,-0.463234 0,-0.255824 0.20749,-0.463234 0.463314,-0.463234"
         style="fill:#000000;fill-opacity:1;fill-rule:evenodd;stroke:none;stroke-width:0.43138593"
         id="path30"
         inkscape:connector-curvature="0" />
      <path
         d="m 49.264242,49.984317 c 0.230411,0 0.417152,0.186822 0.417152,0.417232 0,0.23033 -0.186741,0.417152 -0.417152,0.417152 -0.23033,0 -0.417151,-0.186822 -0.417151,-0.417152 0,-0.23041 0.186821,-0.417232 0.417151,-0.417232"
         style="fill:#000000;fill-opacity:1;fill-rule:evenodd;stroke:none;stroke-width:0.43138593"
         id="path32"
         inkscape:connector-curvature="0" />
      <path
         d="m 48.421897,53.385706 c 0.23033,0 0.417152,0.186822 0.417152,0.417152 0,0.23041 -0.186822,0.417232 -0.417152,0.417232 -0.23033,0 -0.417151,-0.186822 -0.417151,-0.417232 0,-0.23033 0.186821,-0.417152 0.417151,-0.417152"
         style="fill:#000000;fill-opacity:1;fill-rule:evenodd;stroke:none;stroke-width:0.43138593"
         id="path34"
         inkscape:connector-curvature="0" />
    </g>
  </g>
  <g
     id="g1398"
     inkscape:groupmode="layer"
     inkscape:label="F.Silk-disabled" />
  <g
     id="g1400"
     inkscape:groupmode="layer"
     inkscape:label="Drill" />
</svg>
