<?xml version="1.0" encoding="UTF-8" standalone="no"?>
<!-- Created with Inkscape (http://www.inkscape.org/) -->

<svg
   xmlns:dc="http://purl.org/dc/elements/1.1/"
   xmlns:cc="http://creativecommons.org/ns#"
   xmlns:rdf="http://www.w3.org/1999/02/22-rdf-syntax-ns#"
   xmlns:svg="http://www.w3.org/2000/svg"
   xmlns="http://www.w3.org/2000/svg"
   xmlns:sodipodi="http://sodipodi.sourceforge.net/DTD/sodipodi-0.dtd"
   xmlns:inkscape="http://www.inkscape.org/namespaces/inkscape"
   sodipodi:docname="wlogo.svg"
   inkscape:version="0.92.2 (5c3e80d, 2017-08-06)"
   id="svg8"
   version="1.1"
   viewBox="0 0 100.0 100.0"
   height="100.0mm"
   width="100.0mm">
  <sodipodi:namedview
     inkscape:window-maximized="0"
     inkscape:window-y="28"
     inkscape:window-x="3707"
     inkscape:window-height="875"
     inkscape:window-width="1511"
     showgrid="true"
     inkscape:current-layer="g4596"
     inkscape:document-units="mm"
     inkscape:cy="176.06437"
     inkscape:cx="151.63313"
     inkscape:zoom="2.56"
     inkscape:pageshadow="2"
     inkscape:pageopacity="0.0"
     borderopacity="1.0"
     bordercolor="#666666"
     pagecolor="#ffffff"
     id="base"
     borderlayer="true"
     inkscape:measure-start="0,0"
     inkscape:measure-end="0,0"
     inkscape:snap-text-baseline="true">
    <inkscape:grid
       id="grid4578"
       units="mm"
       type="xygrid"
       empspacing="1"
       spacingy="2.54"
       spacingx="2.54" />
  </sodipodi:namedview>
  <defs
     id="defs2" />
  <metadata
     id="metadata5">
    <rdf:RDF>
      <cc:Work
         rdf:about="">
        <dc:format>image/svg+xml</dc:format>
        <dc:type
           rdf:resource="http://purl.org/dc/dcmitype/StillImage" />
        <dc:title />
      </cc:Work>
    </rdf:RDF>
  </metadata>
  <g
     id="g4584"
     sodipodi:insensitive="true"
     inkscape:groupmode="layer"
     inkscape:label="[fixed] BG"
     style="display:none">
    <rect
       id="rect4582"
       style="fill:#ffffff;fill-opacity:1;stroke:none"
       height="100"
       width="100"
       y="0"
       x="0" />
  </g>
  <g
     id="g4586"
     inkscape:groupmode="layer"
     inkscape:label="Edge.Cuts" />
  <g
     id="g4588"
     inkscape:groupmode="layer"
     inkscape:label="B.Cu-disabled" />
  <g
     id="g4590"
     inkscape:groupmode="layer"
     inkscape:label="B.Mask-disabled" />
  <g
     id="g4592"
     inkscape:groupmode="layer"
     inkscape:label="B.Silk-disabled" />
  <g
     id="g4594"
     inkscape:groupmode="layer"
     inkscape:label="F.Cu" />
  <g
     id="g4596"
     inkscape:groupmode="layer"
     inkscape:label="F.Mask"
     style="display:inline">
    <path
       d="m 45.168491,59.535246 c 0,0.07706 0,1.095581 0,1.172687 0.07656,0 0.823884,0 0.823884,0 l -0.919895,3.423551 c 0,0 -1.125962,-4.532265 -1.141757,-4.596238 -0.06134,0 -1.13012,0 -1.190956,0 -0.01679,0.06232 -1.234563,4.596238 -1.234563,4.596238 l -0.847495,-3.423551 c 0,0 0.78139,0 0.857981,0 0,-0.07706 0,-1.095581 0,-1.172687 -0.0818,0 -3.359112,0 -3.44144,0 0,0.07706 0,1.095581 0,1.172687 0.07608,0 0.762526,0 0.762526,0 0,0 1.315854,5.263344 1.332124,5.327313 0.06293,0 1.78472,0 1.847103,0 0.01627,-0.06234 0.882165,-3.352347 0.882165,-3.352347 0,0 0.822292,3.288892 0.838034,3.352347 0.06288,0 1.784646,0 1.847116,0 0.01681,-0.06287 1.401307,-5.327313 1.401307,-5.327313 0,0 0.68025,0 0.756275,0 0,-0.07706 0,-1.095581 0,-1.172687 -0.08131,0 -2.491114,0 -2.572409,0"
       style="display:inline;fill:#302a83;fill-opacity:1;fill-rule:nonzero;stroke:none;stroke-width:0.03527778"
       id="path827"
       inkscape:connector-curvature="0" />
  </g>
  <g
     id="g4598"
     inkscape:groupmode="layer"
     inkscape:label="F.Silk-disabled" />
  <g
     id="g4600"
     inkscape:groupmode="layer"
     inkscape:label="Drill">
    <g
       transform="matrix(0.35277777,0,0,-0.35277777,26.528632,57.848338)"
       inkscape:label="ink_ext_XXXXXX"
       id="g823"
       style="display:inline" />
  </g>
</svg>
